<svg width="28" height="28" viewBox="0 0 28 28" fill="none" xmlns="http://www.w3.org/2000/svg">
<g filter="url(#filter0_d_5_3)">
<path d="M14.0001 0.041626C8.47724 0.041626 4 4.51886 4 10.0417C4 14.995 7.60522 19.0972 12.3322 19.8916V12.128H9.91994V9.33417H12.3322V7.27413C12.3322 4.88389 13.7921 3.58135 15.9247 3.58135C16.9461 3.58135 17.8238 3.65746 18.0786 3.69098V6.18942L16.5995 6.19013C15.44 6.19013 15.2165 6.74102 15.2165 7.54969V9.33274H17.9832L17.6223 12.1265H15.2165V19.9584C20.1642 19.3562 24 15.1495 24 10.0388C24 4.51886 19.5228 0.041626 14.0001 0.041626Z" fill="#010002"/>
</g>
<defs>
<filter id="filter0_d_5_3" x="0" y="0" width="28" height="28" filterUnits="userSpaceOnUse" color-interpolation-filters="sRGB">
<feFlood flood-opacity="0" result="BackgroundImageFix"/>
<feColorMatrix in="SourceAlpha" type="matrix" values="0 0 0 0 0 0 0 0 0 0 0 0 0 0 0 0 0 0 127 0" result="hardAlpha"/>
<feOffset dy="4"/>
<feGaussianBlur stdDeviation="2"/>
<feComposite in2="hardAlpha" operator="out"/>
<feColorMatrix type="matrix" values="0 0 0 0 0 0 0 0 0 0 0 0 0 0 0 0 0 0 0.25 0"/>
<feBlend mode="normal" in2="BackgroundImageFix" result="effect1_dropShadow_5_3"/>
<feBlend mode="normal" in="SourceGraphic" in2="effect1_dropShadow_5_3" result="shape"/>
</filter>
</defs>
</svg>
